<?xml version="1.0" standalone="no"?>
<!DOCTYPE svg PUBLIC "-//W3C//DTD SVG 20010904//EN"
 "http://www.w3.org/TR/2001/REC-SVG-20010904/DTD/svg10.dtd">
<svg version="1.0" xmlns="http://www.w3.org/2000/svg"
 width="512.000000pt" height="512.000000pt" viewBox="0 0 512.000000 512.000000"
 preserveAspectRatio="xMidYMid meet">

<g transform="translate(0.000000,512.000000) scale(0.100000,-0.100000)"
fill="#000000" stroke="none">
<path d="M1373 3820 c-46 -20 -79 -64 -89 -117 -14 -75 -11 -79 535 -626 l516
-517 -517 -518 c-285 -285 -522 -530 -528 -545 -17 -47 -12 -101 13 -138 47
-69 121 -96 194 -69 15 6 260 243 545 528 l518 517 517 -517 c449 -447 524
-518 560 -529 117 -34 228 77 194 194 -11 36 -82 111 -529 560 l-517 517 517
518 c410 411 518 525 528 555 35 111 -61 219 -179 202 -45 -6 -57 -17 -569
-528 l-522 -522 -513 512 c-353 354 -524 517 -549 528 -49 20 -74 19 -125 -5z"/>
</g>
</svg>
